<?xml version="1.0" standalone="no"?>
<!DOCTYPE svg PUBLIC "-//W3C//DTD SVG 20010904//EN"
 "http://www.w3.org/TR/2001/REC-SVG-20010904/DTD/svg10.dtd">
<svg version="1.0" xmlns="http://www.w3.org/2000/svg"
 width="989.000000pt" height="1280.000000pt" viewBox="0 0 989.000000 1280.000000"
 preserveAspectRatio="xMidYMid meet">
<g transform="translate(0.000000,1280.000000) scale(0.100000,-0.100000)"
fill="#000000" stroke="none">
<path d="M3720 11192 c0 -15 -23 -39 -77 -80 -77 -59 -164 -145 -253 -251
l-45 -54 -55 13 c-30 7 -120 14 -200 17 -137 5 -205 -1 -351 -33 -23 -5 -40 6
-115 76 -137 127 -268 230 -343 270 -13 7 3 -14 35 -46 100 -99 264 -311 264
-341 0 -16 -81 -53 -116 -53 -16 0 -28 9 -38 28 -19 37 -89 100 -130 117 -18
8 -75 21 -127 30 -52 8 -126 23 -166 31 -77 17 -93 14 -93 -16 0 -26 15 -33
31 -14 10 12 24 14 63 9 102 -13 242 -48 287 -70 44 -23 119 -95 119 -115 0
-10 -7 -12 -95 -30 -258 -53 -515 -199 -667 -377 -187 -220 -277 -638 -209
-981 43 -220 134 -458 232 -606 125 -190 460 -496 625 -572 158 -73 397 -118
634 -118 185 -1 265 12 437 69 370 123 683 396 861 751 117 233 180 536 169
808 -8 194 -51 336 -154 508 -30 50 -51 94 -46 99 12 12 206 -8 250 -26 21 -9
44 -23 52 -33 9 -11 12 -12 9 -3 -2 8 -15 23 -29 32 -23 17 -208 75 -313 99
-42 9 -64 25 -149 105 -142 136 -331 257 -500 320 -27 10 -51 24 -54 31 -6 17
103 185 200 308 57 71 76 101 68 109 -8 8 -11 5 -11 -11z"/>
<path d="M2053 11165 c-3 -9 -3 -18 -1 -21 3 -3 8 4 11 16 6 23 -1 27 -10 5z"/>
<path d="M8060 10553 c-117 -21 -273 -69 -555 -173 -132 -48 -336 -118 -453
-154 -387 -121 -465 -157 -708 -328 -248 -175 -220 -162 -327 -156 -59 4 -179
25 -337 61 -135 31 -274 60 -310 66 -36 6 -103 21 -149 33 -82 21 -84 21 -156
3 -81 -20 -121 -16 -164 16 -23 17 -32 19 -50 10 -33 -18 -25 -40 22 -60 61
-26 77 -46 77 -92 0 -53 26 -76 126 -114 66 -25 92 -43 173 -118 53 -48 122
-106 153 -130 31 -23 57 -47 57 -53 1 -6 -63 -75 -140 -153 l-142 -141 -54 0
c-29 0 -79 -9 -110 -20 -72 -25 -86 -25 -141 2 -33 15 -49 18 -61 11 -28 -18
-18 -35 38 -62 51 -24 55 -29 67 -76 12 -48 42 -85 70 -85 23 0 32 -30 21 -74
-13 -52 -32 -74 -84 -97 -24 -10 -43 -23 -43 -29 0 -26 148 -1 295 50 57 20
60 20 81 3 157 -128 222 -161 347 -175 50 -5 184 -21 297 -35 113 -14 275 -27
360 -30 149 -4 161 -3 330 32 154 32 201 38 390 45 191 8 228 12 333 39 64 17
168 44 230 60 61 16 213 43 336 61 250 35 397 70 546 128 302 119 424 199 558
367 27 32 33 35 84 35 70 0 67 18 -8 44 -45 16 -91 20 -274 24 -335 7 -626
-23 -760 -78 -38 -16 -126 -52 -195 -80 -69 -28 -176 -69 -238 -90 -113 -39
-113 -39 -260 -38 -162 2 -267 -10 -477 -53 -77 -16 -165 -29 -195 -29 -31 0
-117 16 -195 36 -155 39 -181 40 -401 10 -113 -16 -229 -11 -229 9 0 6 57 65
126 133 l127 122 93 -15 c122 -19 290 -19 409 2 72 12 168 17 400 18 l305 2
180 36 c237 47 218 44 465 62 259 19 356 34 520 79 307 85 533 206 633 339 27
36 30 37 92 37 171 0 -19 72 -261 99 -122 14 -666 7 -724 -9 -25 -7 -109 -37
-188 -66 -79 -30 -214 -73 -300 -96 -157 -40 -157 -40 -249 -29 -50 6 -138 11
-195 11 -94 0 -155 -5 -337 -26 -102 -11 -73 13 85 71 76 29 229 85 339 125
110 41 252 100 315 133 149 76 167 82 334 113 148 26 222 45 399 100 60 19
130 34 155 34 57 0 112 24 171 74 50 42 77 51 132 43 27 -4 44 -1 54 10 30 29
17 40 -52 46 -51 4 -70 9 -78 23 -5 10 -25 34 -43 53 l-33 34 -97 -7 c-81 -5
-117 -2 -222 19 -142 28 -209 30 -330 8z"/>
<path d="M7654 7956 c-4 -9 -19 -23 -35 -32 -16 -8 -29 -19 -29 -24 0 -5 -9
-34 -21 -64 -18 -50 -25 -57 -72 -79 -74 -35 -115 -42 -135 -24 -76 68 -168
79 -268 33 -43 -19 -82 -49 -136 -104 -91 -92 -292 -332 -345 -411 -21 -31
-59 -81 -84 -111 -26 -30 -59 -80 -74 -110 -31 -62 -90 -142 -180 -244 -48
-55 -74 -75 -131 -101 -39 -18 -78 -44 -87 -58 -10 -15 -41 -34 -81 -50 -36
-14 -84 -40 -108 -59 -45 -36 -116 -79 -288 -173 -58 -32 -123 -70 -145 -85
-22 -15 -105 -64 -185 -110 -170 -98 -270 -163 -361 -235 -36 -29 -91 -69
-123 -90 -80 -51 -76 -72 19 -103 152 -51 306 -50 637 1 81 13 152 21 158 17
13 -8 -9 -49 -139 -255 -130 -206 -170 -278 -217 -387 -19 -45 -48 -104 -65
-129 -47 -74 -34 -105 36 -89 22 5 65 14 97 20 118 23 270 112 546 318 89 67
166 122 171 122 6 0 16 8 23 18 7 9 101 94 208 188 107 94 229 203 270 242 45
43 103 87 145 108 39 20 95 55 125 79 63 48 69 50 209 65 58 6 114 18 125 26
11 8 40 14 64 14 57 0 167 28 377 95 94 29 213 66 265 80 148 41 348 163 386
237 17 33 21 122 9 208 l-7 55 45 42 c54 50 99 74 192 102 39 11 79 27 90 34
18 14 18 15 -3 21 -40 13 -24 32 38 44 33 6 72 17 87 24 24 12 27 18 28 65 0
35 -4 53 -12 53 -22 0 -75 38 -87 62 -25 51 -134 76 -233 53 -44 -10 -42 5 5
45 21 18 28 29 17 24 -11 -4 -33 -9 -50 -12 -17 -2 -51 -24 -77 -48 -57 -53
-82 -60 -168 -45 -58 11 -69 16 -79 39 -37 83 -91 130 -168 147 -18 3 -35 11
-39 16 -13 21 51 123 122 195 74 75 92 107 55 97 -27 -7 -39 18 -16 31 29 17
115 98 115 108 0 6 -9 21 -20 35 -11 14 -20 34 -20 45 0 12 -4 17 -12 12 -19
-12 -89 -5 -112 11 -25 18 -90 19 -137 4 -19 -7 -50 -27 -69 -45 -55 -52 -76
-44 -44 17 8 17 13 33 10 36 -3 3 -8 -2 -12 -11z m226 -26 c0 -5 -2 -10 -4
-10 -3 0 -8 5 -11 10 -3 6 -1 10 4 10 6 0 11 -4 11 -10z m675 -730 c3 -5 1
-10 -4 -10 -6 0 -11 5 -11 10 0 6 2 10 4 10 3 0 8 -4 11 -10z"/>
<path d="M2264 7810 c-90 -45 -173 -121 -323 -297 -50 -59 -56 -63 -96 -63
-58 0 -158 -32 -199 -64 -79 -60 -100 -174 -66 -351 46 -242 45 -227 27 -303
-34 -138 -17 -242 49 -304 38 -35 112 -68 173 -75 80 -9 76 2 63 -210 -24
-383 -90 -689 -190 -888 -45 -90 -68 -123 -196 -279 -58 -72 -106 -135 -106
-140 0 -15 80 -12 155 4 33 8 101 14 150 14 103 0 154 -18 219 -78 22 -20 46
-36 54 -36 31 0 91 83 186 261 203 378 336 546 531 671 74 48 211 108 243 108
11 0 48 -13 83 -30 89 -41 190 -55 299 -41 102 13 285 63 350 95 84 42 130
152 152 367 18 182 -18 464 -66 518 -16 17 -16 31 -6 140 18 195 -10 325 -81
386 -47 39 -118 55 -253 56 -67 0 -141 4 -166 7 -42 6 -46 10 -52 42 -4 19
-14 70 -22 114 -30 150 -87 235 -176 256 -39 9 -66 8 -141 -5 -52 -9 -108 -19
-126 -22 -29 -5 -38 1 -97 60 -86 86 -151 117 -244 117 -56 0 -80 -5 -128 -30z"/>
<path d="M1328 4354 c-113 -27 -163 -67 -175 -140 -6 -38 12 -91 36 -103 11
-6 45 4 105 30 113 49 159 51 244 8 107 -53 211 -177 233 -276 11 -47 10 -55
-6 -73 -19 -21 -50 -26 -60 -10 -4 6 -25 20 -47 31 -60 31 -118 19 -313 -63
-27 -11 -80 -24 -117 -29 -133 -16 -267 -104 -352 -231 -111 -168 -169 -347
-170 -523 -1 -98 3 -121 31 -210 58 -177 119 -258 272 -360 117 -78 246 -140
333 -160 34 -8 106 -24 158 -35 146 -33 136 -24 142 -127 4 -63 16 -120 43
-203 77 -239 164 -356 360 -484 196 -129 398 -220 525 -236 36 -4 108 -19 161
-33 53 -14 165 -36 249 -48 128 -18 166 -20 229 -12 42 6 118 8 169 6 71 -4
113 -1 185 15 141 32 176 36 193 22 10 -9 33 -11 77 -6 34 3 94 8 132 11 380
25 677 150 886 373 120 128 196 285 233 482 21 109 20 203 -3 385 -23 180 -56
295 -120 431 -109 228 -241 368 -392 415 -82 25 -290 35 -352 16 -47 -15 -50
-15 -100 11 -50 26 -55 27 -238 27 l-187 0 -48 35 c-37 26 -59 35 -90 35 -23
0 -45 3 -48 6 -3 3 5 42 18 87 40 138 170 289 309 360 56 29 76 34 139 35 67
0 82 -4 187 -52 128 -58 142 -57 175 12 22 49 20 85 -9 144 -42 83 -112 119
-292 150 -105 17 -197 9 -300 -27 -179 -63 -370 -245 -467 -445 -24 -49 -47
-98 -50 -109 -9 -26 -27 -9 -67 62 -40 72 -140 170 -205 202 -45 23 -61 25
-199 26 -112 1 -165 6 -209 19 -49 14 -80 16 -170 11 l-111 -7 -45 31 c-51 34
-68 36 -96 15 -50 -38 -88 -12 -119 81 -66 196 -233 371 -404 424 -74 23 -178
25 -263 4z"/>
<path d="M6469 4035 c-43 -18 -86 -27 -176 -34 -131 -11 -208 -36 -252 -85
-14 -14 -29 -26 -36 -26 -11 0 -63 -59 -101 -115 -31 -44 -54 -122 -54 -177 0
-74 -11 -88 -70 -88 -48 0 -51 -2 -89 -50 -22 -28 -55 -81 -73 -118 l-33 -66
-3 -186 c-3 -144 0 -202 13 -260 60 -275 59 -418 -3 -484 -44 -46 -64 -115
-69 -241 -7 -148 3 -180 73 -245 73 -66 105 -82 175 -86 32 -2 92 -13 134 -25
80 -24 80 -24 182 9 52 17 68 -3 93 -115 46 -209 99 -334 180 -425 46 -52 56
-57 170 -98 111 -39 156 -60 302 -144 81 -47 293 -54 461 -16 24 5 90 14 148
19 110 11 213 38 265 70 18 11 80 73 139 140 58 66 137 144 174 175 76 61 95
93 167 289 24 64 50 130 59 146 23 45 88 95 148 114 69 22 133 76 147 125 8
28 6 56 -7 117 l-16 81 86 85 c73 72 92 98 126 171 21 47 44 89 50 92 5 4 31
37 56 75 58 86 71 152 56 276 -11 93 -71 250 -118 313 -39 51 -71 130 -99 243
-14 57 -34 119 -46 136 -22 37 -86 92 -135 117 -45 22 -161 21 -254 -4 -41
-11 -83 -20 -94 -20 -11 0 -52 24 -92 54 -90 68 -146 89 -325 122 -112 20
-167 25 -253 22 -108 -3 -112 -4 -209 -50 -54 -27 -108 -48 -121 -48 -25 0
-29 4 -66 52 -14 19 -38 33 -77 44 -31 8 -86 26 -122 39 -36 14 -85 29 -110
34 -25 6 -71 22 -101 36 -83 37 -133 40 -200 10z"/>
</g>
</svg>
