<?xml version="1.0" standalone="no"?>
<!DOCTYPE svg PUBLIC "-//W3C//DTD SVG 20010904//EN"
 "http://www.w3.org/TR/2001/REC-SVG-20010904/DTD/svg10.dtd">
<svg version="1.0" xmlns="http://www.w3.org/2000/svg"
 width="1164.000000pt" height="1280.000000pt" viewBox="0 0 1164.000000 1280.000000"
 preserveAspectRatio="xMidYMid meet">
<g transform="translate(0.000000,1280.000000) scale(0.100000,-0.100000)"
fill="#000000" stroke="none">
<path d="M10655 12775 c-130 -28 -221 -56 -363 -111 -112 -43 -117 -44 -167
-33 -73 16 -111 1 -186 -74 l-61 -61 -247 -17 -246 -17 -104 30 c-220 63 -346
71 -626 43 -210 -22 -312 -7 -465 70 -55 27 -83 34 -189 44 -177 18 -399 16
-496 -4 -89 -18 -213 -73 -304 -134 -32 -22 -120 -89 -195 -149 -168 -134
-266 -190 -415 -238 -64 -20 -120 -40 -124 -44 -4 -4 -3 -19 2 -33 10 -26 6
-31 -77 -101 -192 -164 -647 -535 -812 -664 -307 -239 -410 -301 -618 -373
-253 -88 -462 -210 -697 -405 -129 -107 -657 -627 -938 -923 -126 -133 -149
-153 -169 -147 -13 3 -88 9 -168 12 -116 5 -157 3 -206 -10 -34 -9 -66 -16
-71 -16 -5 0 -45 48 -89 106 -125 169 -217 239 -347 265 -145 29 -380 -62
-747 -289 l-105 -65 -85 4 c-47 2 -152 4 -235 4 -126 -1 -161 -4 -222 -23
-188 -58 -258 -193 -257 -492 1 -260 72 -635 150 -797 51 -108 130 -185 210
-209 116 -34 271 -4 534 102 74 30 142 54 152 54 9 0 95 -20 190 -44 237 -60
352 -79 488 -79 176 1 267 40 424 184 79 73 85 76 182 103 54 16 107 32 116
37 9 5 75 123 148 262 l131 253 408 305 407 306 140 52 c243 92 384 151 559
236 264 129 441 249 722 492 l142 123 58 0 c96 0 95 2 15 -172 -70 -153 -106
-247 -118 -316 -4 -20 -10 -44 -15 -53 -5 -9 -132 -105 -283 -213 -151 -108
-277 -200 -281 -206 -3 -5 -44 -28 -91 -51 -445 -217 -680 -693 -1426 -2879
-58 -170 -87 -269 -82 -278 5 -7 54 -41 109 -75 93 -59 100 -65 107 -102 15
-82 21 -616 9 -724 -25 -210 -67 -323 -157 -421 -72 -77 -130 -115 -364 -235
-314 -161 -505 -298 -725 -519 -142 -143 -252 -286 -411 -537 -281 -442 -431
-639 -900 -1176 -159 -182 -160 -183 -333 -303 -96 -66 -180 -120 -186 -120
-7 0 -26 7 -44 16 -86 43 -150 -30 -309 -351 -79 -160 -89 -175 -166 -250 -80
-79 -136 -165 -136 -208 0 -37 56 -121 119 -180 76 -70 209 -158 416 -277
l160 -91 93 -125 c191 -256 334 -364 546 -414 202 -48 560 -61 711 -27 211 48
315 102 370 191 25 41 30 60 30 110 -1 100 -30 142 -263 371 -112 110 -226
230 -253 266 -120 162 -177 351 -213 710 l-6 56 76 109 c125 179 201 272 339
413 259 266 544 488 1250 972 199 137 317 210 450 279 475 246 664 378 816
568 34 42 89 100 123 127 308 249 429 422 641 918 37 86 73 157 80 157 7 0 34
-12 59 -26 34 -19 51 -23 58 -16 6 6 138 184 292 394 155 211 288 384 297 386
10 2 47 -38 104 -113 50 -65 95 -115 104 -115 10 0 60 13 111 30 52 16 101 30
109 30 7 0 97 -47 200 -104 272 -151 407 -217 663 -321 126 -51 260 -112 299
-135 91 -54 243 -177 339 -274 l74 -76 -57 -232 c-89 -357 -100 -426 -101
-623 l-1 -170 52 -210 c85 -339 88 -367 88 -910 0 -258 -6 -598 -14 -755 -14
-307 -16 -317 -77 -389 -24 -29 -29 -31 -73 -25 -45 6 -48 5 -84 -35 -44 -49
-91 -141 -142 -276 -99 -264 -127 -487 -75 -590 34 -67 97 -109 197 -131 63
-14 110 -16 282 -11 113 3 256 11 316 18 l110 12 190 -46 c460 -112 714 -143
950 -118 201 22 340 62 508 149 112 57 224 148 252 203 23 43 19 93 -10 127
-40 48 -93 63 -239 67 -147 5 -211 20 -305 71 -71 39 -212 141 -317 230 -184
156 -711 618 -722 633 -9 13 -13 74 -13 227 0 327 16 404 145 692 90 203 132
310 169 442 55 188 119 520 182 935 41 269 73 465 109 666 37 205 49 357 36
469 -12 104 -52 236 -102 332 l-32 63 -1 175 c-1 173 -2 177 -47 352 l-45 177
38 101 c78 206 203 457 529 1055 180 330 244 457 308 611 109 260 133 381 139
719 l5 250 40 130 c100 328 124 495 98 688 l-12 96 62 83 c116 153 148 259
157 526 l6 164 51 38 c28 20 90 61 139 89 228 134 267 158 337 211 141 107
264 258 332 407 36 80 88 280 88 340 0 77 -44 232 -97 337 -90 180 -248 338
-432 431 -72 36 -232 75 -301 74 -30 -1 -100 -11 -155 -24z m-8350 -3304 c72
-33 105 -78 105 -143 0 -22 -13 -46 -44 -82 -75 -88 -87 -123 -65 -197 10 -33
9 -42 -8 -72 -30 -49 -45 -104 -38 -128 4 -12 25 -41 46 -64 l39 -43 -25 -43
c-14 -25 -25 -60 -25 -81 0 -31 7 -42 45 -76 25 -22 45 -45 45 -52 0 -6 -9
-23 -20 -37 -27 -35 -19 -56 43 -120 63 -65 57 -75 -50 -81 -66 -4 -91 0 -158
23 -80 26 -234 105 -254 128 -7 9 -6 42 5 112 19 127 21 284 5 355 -8 30 -31
94 -53 142 -27 57 -38 95 -35 110 11 41 124 222 173 277 27 30 67 62 89 72 51
24 129 24 180 0z m7065 -188 c0 -16 -12 -138 -26 -273 l-27 -245 -104 -279
c-57 -153 -110 -291 -119 -307 -30 -59 -85 -206 -106 -283 -25 -93 -30 -290
-14 -571 10 -179 1 -261 -41 -380 -35 -97 -91 -205 -106 -205 -7 0 -48 51 -92
113 -63 88 -161 194 -463 504 l-384 393 90 97 c122 131 178 203 340 432 114
160 636 834 704 907 14 16 37 24 86 29 77 8 152 34 202 69 46 33 60 32 60 -1z"/>
</g>
</svg>
